<svg width="128" height="24" viewBox="0 0 128 24" fill="none" xmlns="http://www.w3.org/2000/svg">
<path fill-rule="evenodd" clip-rule="evenodd" d="M0.5 0.995117V10.0508V10.5V10.8906H5.26367V23H7.05078V10.8906H11.7383V10.0508H1.17319V0.995117H0.5ZM2.32865 0.995117V9.5H2.99297V0.995117H2.32865ZM3.65729 0.995117V8.99512H5.65027V0.995117H3.65729ZM6.31459 0.995117V8.99512H8.30756V0.995117H6.31459ZM10.3005 0.995117V8.99512H10.9649V0.995117H10.3005ZM11.6396 0.995117V8.99512H13.6325V0.995117H11.6396ZM14.2969 0.995117V8.99512H14.9612V0.995117H14.2969ZM15.6255 0.995117V8.99512H17.6185V0.995117H15.6255ZM19.6114 0.995117V8.99512H20.2758V0.995117H19.6114ZM20.9401 0.995117V8.99512H21.6044V0.995117H20.9401ZM22.2791 8.99512V0.995117H22.9434V8.99512H22.2791ZM23.6078 8.99512V0.995117H24.2721V8.99512H23.6078ZM24.9364 8.99512V0.995117L25.5 1V9L24.9364 8.99512ZM26 13.3223V0.995117H27.5V12.8145V14.5V14.7578C28.2747 14.0807 29.1243 13.5892 29.7754 13.2832C30.4329 12.9707 31.0742 12.8145 31.6992 12.8145C32.0182 12.8145 32.3177 12.8926 32.5977 13.0488C32.8841 13.2051 33.1315 13.4199 33.3398 13.6934C33.5482 13.9668 33.7109 14.2891 33.8281 14.6602C33.9518 15.0247 34.0137 15.4154 34.0137 15.832V23H32.4219V16.1738C32.4219 15.8418 32.3763 15.5521 32.2852 15.3047C32.2005 15.0508 32.0768 14.8392 31.9141 14.6699C31.7578 14.5007 31.569 14.3737 31.3477 14.2891C31.1328 14.1979 30.8952 14.1523 30.6348 14.1523C30.4069 14.1523 30.166 14.1979 29.9121 14.2891C29.6582 14.3737 29.401 14.4909 29.1406 14.6406C28.8867 14.7839 28.6296 14.9531 28.3691 15.1484C28.2652 15.2284 28.1399 15.31 28.0122 15.3933C27.8279 15.5133 27.6384 15.6368 27.5 15.7637V23H26V14.5V13.3223ZM28 8.99512V0.995117H30.122V8.99512H28ZM31 0.995117V8.99512H31.5V1L31 0.995117ZM35.576 0.995117V8.99512H37.5689V0.995117H35.576ZM38.2333 0.995117V8.99512H38.8976V0.995117H38.2333ZM39.5619 0.995117V8.99512H41.5549V0.995117H39.5619ZM42.2192 0.995117V8.99512H42.8835V0.995117H42.2192ZM43.5582 8.99512V0.995117H44.2226V8.99512H43.5582ZM44.8869 8.99512V0.995117H47V8.99512H44.8869ZM47.5 10.1094V0.995117H49V12.4951H48.9941V13H51.2207V13.8496H48.9941V20.8906C48.9941 21.0404 49.0267 21.1803 49.0918 21.3105C49.1569 21.4408 49.2448 21.5547 49.3555 21.6523C49.4727 21.75 49.6061 21.8281 49.7559 21.8867C49.9121 21.9388 50.0814 21.9648 50.2637 21.9648C50.5371 21.9648 50.7682 21.9193 50.957 21.8281C51.1458 21.737 51.2956 21.6263 51.4062 21.4961L51.6992 21.6914C51.4258 22.1602 51.0807 22.5312 50.6641 22.8047C50.2539 23.0781 49.7526 23.2148 49.1602 23.2148C48.8607 23.2148 48.6003 23.1562 48.3789 23.0391C48.1883 22.9437 48.099 22.8146 47.9865 22.6517C47.9683 22.6255 47.9496 22.5983 47.9297 22.5703C47.7865 22.362 47.679 22.1178 47.6074 21.8379C47.5358 21.5514 47.5 21.2357 47.5 20.8906V13.8496H45.6641V13.4395L47.2559 13H47.5V12.4951V10.1094ZM50 8.99512V0.995117H50.8658V8.99512H50ZM52.8588 8.99512V0.995117H53.5231V8.99512H52.8588ZM54.1978 0.995117V8.99512H56.1908V0.995117H54.1978ZM56.8551 0.995117V8.99512H57.5194V0.995117H56.8551ZM58.1837 0.995117V8.99512H60.1767V0.995117H58.1837ZM60.841 0.995117V8.99512H61.5054V0.995117H60.841ZM63.4983 0.995117V8.99512H64.1627V0.995117H63.4983ZM64.8374 8.99512V0.995117H65.5017V8.99512H64.8374ZM67.4947 8.99512V0.995117H69.4876V8.99512H67.4947ZM70.1519 8.99512V0.995117H70.8163V8.99512H70.1519ZM71.4806 8.99512V0.995117H73.4736V8.99512H71.4806ZM74.1379 8.99512V0.995117H74.8022V8.99512H74.1379ZM75.4769 0.995117V8.99512H76.1412V0.995117H75.4769ZM76.8056 0.995117V11.4951H76.8065V13H76.66L75.0977 13.4395V13.8496H76.8065V20.8906C76.8065 21.2357 76.8423 21.5514 76.9139 21.8379C76.9855 22.1178 77.0929 22.362 77.2362 22.5703C77.3794 22.7721 77.5911 22.9284 77.8125 23.0391C78.0339 23.1562 78.2943 23.2148 78.5938 23.2148C79.1862 23.2148 79.6875 23.0781 80.0977 22.8047C80.5143 22.5312 80.8594 22.1602 81.1328 21.6914L80.8398 21.4961C80.7292 21.6263 80.5794 21.737 80.3906 21.8281C80.2018 21.9193 79.9707 21.9648 79.6973 21.9648C79.515 21.9648 79.418 21.9388 79.2617 21.8867C79.112 21.8281 78.9785 21.75 78.8613 21.6523C78.7506 21.5547 78.6628 21.4408 78.5977 21.3105C78.5326 21.1803 78.5 21.0404 78.5 20.8906V13.8496H80.6543V13H78.5V11.4951V9.60156V0.995117H76.8056ZM79 0.995117V8.99512H80.1272V0.995117H79ZM80.7915 0.995117V8.99512H82.7845V0.995117H80.7915ZM84 0.995117V8.41992V9.49512V23H85.4357V15.5977C85.5739 15.471 85.8085 15.3511 86.0299 15.2379C86.1838 15.1592 86.3314 15.0838 86.4355 15.0117C86.6895 14.8359 86.9434 14.6862 87.1973 14.5625C87.4577 14.4323 87.7116 14.3314 87.959 14.2598C88.2129 14.1882 88.457 14.1523 88.6914 14.1523C88.9518 14.1523 89.1927 14.1979 89.4141 14.2891C89.6354 14.3737 89.8242 14.5007 89.9805 14.6699C90.1432 14.8392 90.2669 15.0508 90.3516 15.3047C90.4427 15.5521 90.4883 15.8418 90.4883 16.1738V23H92.0801V15.832C92.0801 15.4154 92.0182 15.0247 91.8945 14.6602C91.7773 14.2891 91.6146 13.9668 91.4062 13.6934C91.1979 13.4199 90.9505 13.2051 90.6641 13.0488C90.3841 12.8926 90.0846 12.8145 89.7656 12.8145C89.1471 12.8145 88.5059 12.9544 87.8418 13.2344C87.1777 13.5078 86.1974 13.9798 85.4357 14.6504V9.49512H85.4418V0.995117H84ZM86.1165 8.99512V0.995117H88.1094V8.99512H86.1165ZM88.7738 8.99512V0.995117H89.4381V8.99512H88.7738ZM90.1024 8.99512V0.995117H90.7667V8.99512H90.1024ZM92.7597 8.99512V0.995117H94.7527V8.99512H92.7597ZM95.417 8.99512V0.995117H96.0813V8.99512H95.417ZM96.756 0.995117V8.99512H98.749V0.995117H96.756ZM99.4133 0.995117V8.99512H100.078V0.995117H99.4133ZM100.742 0.995117V8.99512H102.735V0.995117H100.742ZM104.728 0.995117V8.99512H105.392V0.995117H104.728ZM106.057 0.995117V8.99512H106.721V0.995117H106.057ZM107.396 8.99512V0.995117H108.06V8.99512H107.396ZM110.053 8.99512V0.995117H112.046V8.99512H110.053ZM112.71 8.99512V0.995117H113.375V8.99512H112.71ZM114.039 8.99512V0.995117H116.032V8.99512H114.039ZM116.696 8.99512V0.995117H117.36V8.99512H116.696ZM118.035 0.995117V8.99512H118.699V0.995117H118.035ZM119.364 0.995117V8.99512H120.028V0.995117H119.364ZM120.692 0.995117V8.99512H122.685V0.995117H120.692ZM123.35 0.995117V8.99512H124.014V0.995117H123.35ZM126 0.995117V7.5V8.99512V19.7773L117.441 10.0508H116.367V23H117.354V12.6094L126.641 23.2637H127V8.99512H127.004V0.995117H126ZM18.291 23.2148C17.64 23.2148 17.028 23.0879 16.4551 22.834C15.8887 22.5801 15.3906 22.235 14.9609 21.7988C14.5378 21.3626 14.2025 20.8516 13.9551 20.2656C13.7077 19.6732 13.584 19.0449 13.584 18.3809C13.584 17.5801 13.6947 16.8411 13.916 16.1641C14.1439 15.4805 14.4629 14.8913 14.873 14.3965C15.2897 13.9017 15.7878 13.5143 16.3672 13.2344C16.9466 12.9544 17.5911 12.8145 18.3008 12.8145C18.9258 12.8145 19.4987 12.9316 20.0195 13.166C20.5404 13.3939 20.9896 13.7031 21.3672 14.0938C21.7448 14.4779 22.0378 14.9238 22.2461 15.4316C22.4544 15.9395 22.5586 16.4701 22.5586 17.0234H15.1074C15.1074 17.694 15.1986 18.3158 15.3809 18.8887C15.5632 19.4616 15.8171 19.9564 16.1426 20.373C16.4746 20.7897 16.8652 21.1152 17.3145 21.3496C17.7702 21.584 18.2715 21.7012 18.8184 21.7012C19.2741 21.7012 19.7103 21.6361 20.127 21.5059C20.5501 21.3691 20.9277 21.1934 21.2598 20.9785C21.5983 20.7572 21.8815 20.5065 22.1094 20.2266C22.3438 19.9401 22.5065 19.6471 22.5977 19.3477L22.8418 19.4648C22.6921 19.9857 22.4609 20.474 22.1484 20.9297C21.8424 21.3789 21.4844 21.776 21.0742 22.1211C20.6641 22.4596 20.2181 22.7266 19.7363 22.9219C19.2611 23.1172 18.7793 23.2148 18.291 23.2148ZM20.2637 16.2227H20.459C20.459 15.8451 20.3874 15.4935 20.2441 15.168C20.1009 14.8424 19.9023 14.5625 19.6484 14.3281C19.401 14.0872 19.1081 13.8984 18.7695 13.7617C18.431 13.625 18.0697 13.5566 17.6855 13.5566C17.36 13.5566 17.0475 13.625 16.748 13.7617C16.4551 13.8919 16.1914 14.0775 15.957 14.3184C15.7227 14.5527 15.5306 14.8327 15.3809 15.1582C15.2311 15.4837 15.1432 15.8353 15.1172 16.2129L20.2637 16.2227ZM57.041 22.8145C57.666 23.0814 58.3464 23.2148 59.082 23.2148C59.8112 23.2148 60.485 23.0716 61.1035 22.7852C61.722 22.4922 62.2559 22.0983 62.7051 21.6035C63.1608 21.1022 63.5156 20.5195 63.7695 19.8555C64.0234 19.1849 64.1504 18.472 64.1504 17.7168C64.1504 17.0332 64.0234 16.3952 63.7695 15.8027C63.5156 15.2038 63.1608 14.6829 62.7051 14.2402C62.2559 13.7975 61.722 13.4492 61.1035 13.1953C60.485 12.9414 59.8112 12.8145 59.082 12.8145C58.3464 12.8145 57.666 12.9544 57.041 13.2344C56.4225 13.5078 55.8854 13.8854 55.4297 14.3672C54.9805 14.849 54.6289 15.4154 54.375 16.0664C54.1211 16.7109 53.9941 17.401 53.9941 18.1367C53.9941 18.8398 54.1211 19.5007 54.375 20.1191C54.6289 20.7311 54.9805 21.2682 55.4297 21.7305C55.8854 22.1862 56.4225 22.5475 57.041 22.8145ZM60.6055 22.1797C60.2604 22.3815 59.8796 22.4824 59.4629 22.4824C58.8835 22.4824 58.3659 22.3457 57.9102 22.0723C57.4609 21.7923 57.0801 21.4147 56.7676 20.9395C56.4616 20.4642 56.2272 19.9076 56.0645 19.2695C55.9017 18.6315 55.8203 17.9479 55.8203 17.2188C55.8203 16.7174 55.8952 16.2454 56.0449 15.8027C56.2012 15.3535 56.4062 14.9629 56.6602 14.6309C56.9206 14.2988 57.2168 14.0384 57.5488 13.8496C57.8874 13.6543 58.2357 13.5566 58.5938 13.5566C59.2773 13.5566 59.8535 13.6934 60.3223 13.9668C60.7975 14.2337 61.1816 14.6016 61.4746 15.0703C61.7741 15.5391 61.9889 16.0892 62.1191 16.7207C62.2493 17.3522 62.3145 18.0293 62.3145 18.752C62.3145 19.2533 62.2428 19.7285 62.0996 20.1777C61.9629 20.627 61.7676 21.0241 61.5137 21.3691C61.2598 21.7077 60.957 21.9779 60.6055 22.1797ZM100.029 23.2148C99.3783 23.2148 98.7663 23.0879 98.1934 22.834C97.627 22.5801 97.1289 22.235 96.6992 21.7988C96.276 21.3626 95.9408 20.8516 95.6934 20.2656C95.446 19.6732 95.3223 19.0449 95.3223 18.3809C95.3223 17.5801 95.4329 16.8411 95.6543 16.1641C95.8822 15.4805 96.2012 14.8913 96.6113 14.3965C97.028 13.9017 97.526 13.5143 98.1055 13.2344C98.6849 12.9544 99.3294 12.8145 100.039 12.8145C100.664 12.8145 101.237 12.9316 101.758 13.166C102.279 13.3939 102.728 13.7031 103.105 14.0938C103.483 14.4779 103.776 14.9238 103.984 15.4316C104.193 15.9395 104.297 16.4701 104.297 17.0234H96.8457C96.8457 17.694 96.9369 18.3158 97.1191 18.8887C97.3014 19.4616 97.5553 19.9564 97.8809 20.373C98.2129 20.7897 98.6035 21.1152 99.0527 21.3496C99.5085 21.584 100.01 21.7012 100.557 21.7012C101.012 21.7012 101.449 21.6361 101.865 21.5059C102.288 21.3691 102.666 21.1934 102.998 20.9785C103.337 20.7572 103.62 20.5065 103.848 20.2266C104.082 19.9401 104.245 19.6471 104.336 19.3477L104.58 19.4648C104.43 19.9857 104.199 20.474 103.887 20.9297C103.581 21.3789 103.223 21.776 102.812 22.1211C102.402 22.4596 101.956 22.7266 101.475 22.9219C100.999 23.1172 100.518 23.2148 100.029 23.2148ZM102.002 16.2227H102.197C102.197 15.8451 102.126 15.4935 101.982 15.168C101.839 14.8424 101.641 14.5625 101.387 14.3281C101.139 14.0872 100.846 13.8984 100.508 13.7617C100.169 13.625 99.8079 13.5566 99.4238 13.5566C99.0983 13.5566 98.7858 13.625 98.4863 13.7617C98.1934 13.8919 97.9297 14.0775 97.6953 14.3184C97.4609 14.5527 97.2689 14.8327 97.1191 15.1582C96.9694 15.4837 96.8815 15.8353 96.8555 16.2129L102.002 16.2227Z" fill="white"/>
</svg>
